<svg aria-hidden="true" style="position: absolute; width: 0; height: 0; overflow: hidden;" version="1.1" xmlns="http://www.w3.org/2000/svg" xmlns:xlink="http://www.w3.org/1999/xlink">
  <defs>
    <symbol id="icon-close-sharp" viewBox="0 0 32 32">
      <path d="M32 3.72l-3.72-3.72-12.28 12.28-12.28-12.28-3.72 3.72 12.28 12.28-12.28 12.28 3.72 3.72 12.28-12.28 12.28 12.28 3.72-3.72-12.28-12.28 12.28-12.28z"></path>
    </symbol>
    <symbol id="icon-facebook" viewBox="0 0 32 32">
      <path d="M32 16.040c0-8.854-7.168-16.040-16-16.040s-16 7.186-16 16.040c0 7.763 5.504 14.227 12.8 15.72v-10.907h-3.2v-4.813h3.2v-4.008c0-0 0-0.001 0-0.002 0-3.095 2.506-5.606 5.599-5.613h4.001v4.813h-3.2c-0.88 0-1.6 0.72-1.6 1.603v3.208h4.8v4.813h-4.8v11.146c8.080-0.802 14.4-7.635 14.4-15.96z"></path>
    </symbol>
    <symbol id="icon-menu-duo-lg" viewBox="0 0 77 32">
      <path stroke-width="8" stroke-miterlimit="4" stroke-linecap="round" stroke-linejoin="round" d="M4.8 27.2h67.2M4.8 4.8h67.2"></path>
    </symbol>
    <symbol id="icon-instagram" viewBox="0 0 32 32">
      <path d="M23.385 0h-14.771c-4.756 0.005-8.61 3.859-8.615 8.614v14.771c0.005 4.756 3.859 8.61 8.614 8.615h14.771c4.755-0.006 8.609-3.859 8.615-8.614v-14.771c-0.006-4.755-3.859-8.609-8.614-8.615h-0.001zM16 23.385c-4.079 0-7.385-3.306-7.385-7.385s3.306-7.385 7.385-7.385v0c4.079 0 7.385 3.306 7.385 7.385s-3.306 7.385-7.385 7.385v0zM25.229 8.615c-1.019 0-1.846-0.826-1.846-1.846s0.826-1.846 1.846-1.846v0c1.019 0 1.846 0.826 1.846 1.846s-0.826 1.846-1.846 1.846v0zM20.925 16c0 2.719-2.204 4.923-4.923 4.923s-4.923-2.204-4.923-4.923v0c0-2.719 2.204-4.923 4.923-4.923s4.923 2.204 4.923 4.923v0z"></path>
    </symbol>
    <symbol id="icon-youtube" viewBox="0 0 32 32">
      <path d="M18.672 15.722l-3.744-1.747c-0.326-0.15-0.595 0.019-0.595 0.381v3.29c0 0.362 0.269 0.531 0.595 0.381l3.742-1.747c0.328-0.154 0.328-0.403 0-0.557zM16 0c-8.837 0-16 7.163-16 16s7.163 16 16 16 16-7.163 16-16-7.163-16-16-16zM16 22.501c-8.19 0-8.333-0.739-8.333-6.501s0.144-6.501 8.333-6.501c8.19 0 8.333 0.739 8.333 6.501s-0.144 6.501-8.333 6.501z"></path>
    </symbol>
  </defs>
</svg>